<svg width="150" height="32" viewBox="0 0 150 32" fill="none" xmlns="http://www.w3.org/2000/svg">
<path d="M0 8.42105C0 3.77023 3.77023 0 8.42105 0H23.5789C28.2298 0 32 3.77023 32 8.42105V23.5789C32 28.2298 28.2298 32 23.5789 32H8.42105C3.77023 32 0 28.2298 0 23.5789V8.42105Z" fill="#3C50E0"/>
<path d="M13 15.75C12.6685 15.75 12.3505 15.8817 12.1161 16.1161C11.8817 16.3505 11.75 16.6685 11.75 17C11.75 17.3315 11.8817 17.6495 12.1161 17.8839C12.3505 18.1183 12.6685 18.25 13 18.25C13.1642 18.25 13.3267 18.2177 13.4784 18.1548C13.63 18.092 13.7678 18 13.8839 17.8839C14 17.7678 14.092 17.63 14.1548 17.4784C14.2177 17.3267 14.25 17.1642 14.25 17C14.25 16.8358 14.2177 16.6733 14.1548 16.5216C14.092 16.37 14 16.2322 13.8839 16.1161C13.7678 16 13.63 15.908 13.4784 15.8452C13.3267 15.7823 13.1642 15.75 13 15.75ZM19 15.75C18.6685 15.75 18.3505 15.8817 18.1161 16.1161C17.8817 16.3505 17.75 16.6685 17.75 17C17.75 17.3315 17.8817 17.6495 18.1161 17.8839C18.3505 18.1183 18.6685 18.25 19 18.25C19.3315 18.25 19.6495 18.1183 19.8839 17.8839C20.1183 17.6495 20.25 17.3315 20.25 17C20.25 16.6685 20.1183 16.3505 19.8839 16.1161C19.6495 15.8817 19.3315 15.75 19 15.75ZM16 6C14.6868 6 13.3864 6.25866 12.1732 6.7612C10.9599 7.26375 9.85752 8.00035 8.92893 8.92893C7.05357 10.8043 6 13.3478 6 16C6 18.6522 7.05357 21.1957 8.92893 23.0711C9.85752 23.9997 10.9599 24.7362 12.1732 25.2388C13.3864 25.7413 14.6868 26 16 26C18.6522 26 21.1957 24.9464 23.0711 23.0711C24.9464 21.1957 26 18.6522 26 16C26 14.6868 25.7413 13.3864 25.2388 12.1732C24.7362 10.9599 23.9997 9.85752 23.0711 8.92893C22.1425 8.00035 21.0401 7.26375 19.8268 6.7612C18.6136 6.25866 17.3132 6 16 6ZM16 24C13.8783 24 11.8434 23.1571 10.3431 21.6569C8.84285 20.1566 8 18.1217 8 16C7.97 15.71 7.97 15.43 8 15.14C10.38 14.1 12.27 12.17 13.26 9.77C15.13 12.42 18.17 14 21.42 14C22.18 14 22.93 13.91 23.67 13.74C24.92 18 22.5 22.43 18.26 23.67C17.5 23.89 16.76 24 16 24ZM4 6C4 5.46957 4.21071 4.96086 4.58579 4.58579C4.96086 4.21071 5.46957 4 6 4H10V6H6V10H4V6ZM28 26C28 26.5304 27.7893 27.0391 27.4142 27.4142C27.0391 27.7893 26.5304 28 26 28H22V26H26V22H28V26ZM6 28C5.46957 28 4.96086 27.7893 4.58579 27.4142C4.21071 27.0391 4 26.5304 4 26V22H6V26H10V28H6ZM26 4C26.5304 4 27.0391 4.21071 27.4142 4.58579C27.7893 4.96086 28 5.46957 28 6V10H26V6H22V4H26Z" fill="#EBEDFC"/>
<path d="M45.1477 23V11.3636H52.6023V13.1307H47.2557V16.2898H52.0909V18.0568H47.2557V23H45.1477ZM56.8651 23.1761C56.312 23.1761 55.8139 23.0777 55.3707 22.8807C54.9313 22.6799 54.5829 22.3845 54.3253 21.9943C54.0715 21.6042 53.9446 21.1231 53.9446 20.5511C53.9446 20.0587 54.0355 19.6515 54.2173 19.3295C54.3991 19.0076 54.6473 18.75 54.9616 18.5568C55.276 18.3636 55.6302 18.2178 56.0241 18.1193C56.4219 18.017 56.8329 17.9432 57.2571 17.8977C57.7685 17.8447 58.1832 17.7973 58.5014 17.7557C58.8196 17.7102 59.0507 17.642 59.1946 17.5511C59.3423 17.4564 59.4162 17.3106 59.4162 17.1136V17.0795C59.4162 16.6515 59.2893 16.3201 59.0355 16.0852C58.7817 15.8504 58.4162 15.733 57.9389 15.733C57.4351 15.733 57.0355 15.8428 56.7401 16.0625C56.4484 16.2822 56.2514 16.5417 56.1491 16.8409L54.2287 16.5682C54.3802 16.0379 54.6302 15.5947 54.9787 15.2386C55.3272 14.8788 55.7533 14.6098 56.2571 14.4318C56.7609 14.25 57.3177 14.1591 57.9276 14.1591C58.348 14.1591 58.7666 14.2083 59.1832 14.3068C59.5999 14.4053 59.9806 14.5682 60.3253 14.7955C60.67 15.0189 60.9465 15.3239 61.1548 15.7102C61.367 16.0966 61.473 16.5795 61.473 17.1591V23H59.4957V21.8011H59.4276C59.3026 22.0436 59.1264 22.2708 58.8991 22.483C58.6757 22.6913 58.3935 22.8598 58.0526 22.9886C57.7154 23.1136 57.3196 23.1761 56.8651 23.1761ZM57.3991 21.6648C57.812 21.6648 58.17 21.5833 58.473 21.4205C58.776 21.2538 59.009 21.0341 59.1719 20.7614C59.3385 20.4886 59.4219 20.1913 59.4219 19.8693V18.8409C59.3575 18.8939 59.2476 18.9432 59.0923 18.9886C58.9408 19.0341 58.7704 19.0739 58.581 19.108C58.3916 19.142 58.2041 19.1723 58.0185 19.1989C57.8329 19.2254 57.6719 19.2481 57.5355 19.267C57.2287 19.3087 56.9541 19.3769 56.7116 19.4716C56.4692 19.5663 56.2779 19.6989 56.1378 19.8693C55.9976 20.036 55.9276 20.2519 55.9276 20.517C55.9276 20.8958 56.0658 21.1818 56.3423 21.375C56.6188 21.5682 56.9711 21.6648 57.3991 21.6648ZM67.348 23.1705C66.4768 23.1705 65.7287 22.9792 65.1037 22.5966C64.4825 22.214 64.0033 21.6856 63.6662 21.0114C63.3329 20.3333 63.1662 19.553 63.1662 18.6705C63.1662 17.7841 63.3366 17.0019 63.6776 16.3239C64.0185 15.642 64.4995 15.1117 65.1207 14.733C65.7457 14.3504 66.4844 14.1591 67.3366 14.1591C68.045 14.1591 68.6719 14.2898 69.2173 14.5511C69.7666 14.8087 70.2041 15.1742 70.5298 15.6477C70.8556 16.1174 71.0412 16.6667 71.0866 17.2955H69.1207C69.0412 16.875 68.8518 16.5246 68.5526 16.2443C68.2571 15.9602 67.8613 15.8182 67.3651 15.8182C66.9446 15.8182 66.5753 15.9318 66.2571 16.1591C65.9389 16.3826 65.6908 16.7045 65.5128 17.125C65.3385 17.5455 65.2514 18.0492 65.2514 18.6364C65.2514 19.2311 65.3385 19.7424 65.5128 20.1705C65.687 20.5947 65.9313 20.9223 66.2457 21.1534C66.5639 21.3807 66.937 21.4943 67.3651 21.4943C67.6681 21.4943 67.9389 21.4375 68.1776 21.3239C68.42 21.2064 68.6226 21.0379 68.7855 20.8182C68.9484 20.5985 69.0601 20.3314 69.1207 20.017H71.0866C71.0374 20.6345 70.8556 21.1818 70.5412 21.6591C70.2268 22.1326 69.7988 22.5038 69.2571 22.7727C68.7154 23.0379 68.0791 23.1705 67.348 23.1705ZM76.6392 23.1705C75.7642 23.1705 75.0085 22.9886 74.3722 22.625C73.7396 22.2576 73.2528 21.7386 72.9119 21.0682C72.571 20.3939 72.4006 19.6004 72.4006 18.6875C72.4006 17.7898 72.571 17.0019 72.9119 16.3239C73.2566 15.642 73.7377 15.1117 74.3551 14.733C74.9725 14.3504 75.6979 14.1591 76.5312 14.1591C77.0691 14.1591 77.5767 14.2462 78.054 14.4205C78.535 14.5909 78.9593 14.8561 79.3267 15.2159C79.6979 15.5758 79.9896 16.0341 80.2017 16.5909C80.4138 17.1439 80.5199 17.803 80.5199 18.5682V19.1989H73.3665V17.8125H78.5483C78.5445 17.4186 78.4593 17.0682 78.2926 16.7614C78.1259 16.4508 77.893 16.2064 77.5938 16.0284C77.2983 15.8504 76.9536 15.7614 76.5597 15.7614C76.1392 15.7614 75.7699 15.8636 75.4517 16.0682C75.1335 16.2689 74.8854 16.5341 74.7074 16.8636C74.5331 17.1894 74.4441 17.5473 74.4403 17.9375V19.1477C74.4403 19.6553 74.5331 20.0909 74.7188 20.4545C74.9044 20.8144 75.1638 21.0909 75.4972 21.2841C75.8305 21.4735 76.2206 21.5682 76.6676 21.5682C76.9669 21.5682 77.2377 21.5265 77.4801 21.4432C77.7225 21.3561 77.9328 21.2292 78.1108 21.0625C78.2888 20.8958 78.4233 20.6894 78.5142 20.4432L80.4347 20.6591C80.3134 21.1667 80.0824 21.6098 79.7415 21.9886C79.4044 22.3636 78.9725 22.6553 78.446 22.8636C77.9195 23.0682 77.3172 23.1705 76.6392 23.1705ZM84.4588 11.3636V23H82.3509V11.3636H84.4588ZM89.8892 23.1534C89.2036 23.1534 88.59 22.9773 88.0483 22.625C87.5066 22.2727 87.0786 21.7614 86.7642 21.0909C86.4498 20.4205 86.2926 19.6061 86.2926 18.6477C86.2926 17.678 86.4517 16.8598 86.7699 16.1932C87.0919 15.5227 87.5256 15.017 88.071 14.6761C88.6165 14.3314 89.2244 14.1591 89.8949 14.1591C90.4063 14.1591 90.8267 14.2462 91.1562 14.4205C91.4858 14.5909 91.7472 14.7973 91.9403 15.0398C92.1335 15.2784 92.2831 15.5038 92.3892 15.7159H92.4744V11.3636H94.5369V23H92.5142V21.625H92.3892C92.2831 21.8371 92.1297 22.0625 91.929 22.3011C91.7282 22.536 91.4631 22.7367 91.1335 22.9034C90.804 23.0701 90.3892 23.1534 89.8892 23.1534ZM90.4631 21.4659C90.8987 21.4659 91.2699 21.3485 91.5767 21.1136C91.8835 20.875 92.1165 20.5436 92.2756 20.1193C92.4347 19.6951 92.5142 19.2008 92.5142 18.6364C92.5142 18.072 92.4347 17.5814 92.2756 17.1648C92.1203 16.7481 91.8892 16.4242 91.5824 16.1932C91.2794 15.9621 90.9063 15.8466 90.4631 15.8466C90.0047 15.8466 89.6222 15.9659 89.3153 16.2045C89.0085 16.4432 88.7775 16.7727 88.6222 17.1932C88.4669 17.6136 88.3892 18.0947 88.3892 18.6364C88.3892 19.1818 88.4669 19.6686 88.6222 20.0966C88.7813 20.5208 89.0142 20.8561 89.321 21.1023C89.6316 21.3447 90.0123 21.4659 90.4631 21.4659ZM102.283 23H100.033L104.129 11.3636H106.732L110.834 23H108.584L105.476 13.75H105.385L102.283 23ZM102.357 18.4375H108.493V20.1307H102.357V18.4375ZM115.249 23.1534C114.563 23.1534 113.949 22.9773 113.408 22.625C112.866 22.2727 112.438 21.7614 112.124 21.0909C111.809 20.4205 111.652 19.6061 111.652 18.6477C111.652 17.678 111.811 16.8598 112.129 16.1932C112.451 15.5227 112.885 15.017 113.43 14.6761C113.976 14.3314 114.584 14.1591 115.254 14.1591C115.766 14.1591 116.186 14.2462 116.516 14.4205C116.845 14.5909 117.107 14.7973 117.3 15.0398C117.493 15.2784 117.643 15.5038 117.749 15.7159H117.834V11.3636H119.896V23H117.874V21.625H117.749C117.643 21.8371 117.489 22.0625 117.288 22.3011C117.088 22.536 116.822 22.7367 116.493 22.9034C116.163 23.0701 115.749 23.1534 115.249 23.1534ZM115.822 21.4659C116.258 21.4659 116.629 21.3485 116.936 21.1136C117.243 20.875 117.476 20.5436 117.635 20.1193C117.794 19.6951 117.874 19.2008 117.874 18.6364C117.874 18.072 117.794 17.5814 117.635 17.1648C117.48 16.7481 117.249 16.4242 116.942 16.1932C116.639 15.9621 116.266 15.8466 115.822 15.8466C115.364 15.8466 114.982 15.9659 114.675 16.2045C114.368 16.4432 114.137 16.7727 113.982 17.1932C113.826 17.6136 113.749 18.0947 113.749 18.6364C113.749 19.1818 113.826 19.6686 113.982 20.0966C114.141 20.5208 114.374 20.8561 114.68 21.1023C114.991 21.3447 115.372 21.4659 115.822 21.4659ZM122.088 23V14.2727H124.054V15.7557H124.156C124.338 15.2557 124.639 14.8655 125.06 14.5852C125.48 14.3011 125.982 14.1591 126.565 14.1591C127.156 14.1591 127.654 14.303 128.06 14.5909C128.469 14.875 128.757 15.2633 128.923 15.7557H129.014C129.207 15.2708 129.533 14.8845 129.991 14.5966C130.454 14.3049 131.001 14.1591 131.634 14.1591C132.437 14.1591 133.092 14.4129 133.599 14.9205C134.107 15.428 134.361 16.1686 134.361 17.142V23H132.298V17.4602C132.298 16.9186 132.154 16.5227 131.866 16.2727C131.579 16.0189 131.226 15.892 130.81 15.892C130.313 15.892 129.925 16.0473 129.645 16.358C129.368 16.6648 129.23 17.0644 129.23 17.5568V23H127.213V17.375C127.213 16.9242 127.077 16.5644 126.804 16.2955C126.535 16.0265 126.183 15.892 125.747 15.892C125.452 15.892 125.183 15.9678 124.94 16.1193C124.698 16.267 124.505 16.4773 124.361 16.75C124.217 17.0189 124.145 17.3333 124.145 17.6932V23H122.088ZM136.447 23V14.2727H138.504V23H136.447ZM137.482 13.0341C137.156 13.0341 136.875 12.9261 136.641 12.7102C136.406 12.4905 136.288 12.2273 136.288 11.9205C136.288 11.6098 136.406 11.3466 136.641 11.1307C136.875 10.911 137.156 10.8011 137.482 10.8011C137.811 10.8011 138.091 10.911 138.322 11.1307C138.557 11.3466 138.675 11.6098 138.675 11.9205C138.675 12.2273 138.557 12.4905 138.322 12.7102C138.091 12.9261 137.811 13.0341 137.482 13.0341ZM142.676 17.8864V23H140.619V14.2727H142.585V15.7557H142.688C142.888 15.267 143.208 14.8788 143.648 14.5909C144.091 14.303 144.638 14.1591 145.29 14.1591C145.892 14.1591 146.417 14.2879 146.864 14.5455C147.314 14.803 147.663 15.1761 147.909 15.6648C148.159 16.1534 148.282 16.7462 148.278 17.4432V23H146.222V17.7614C146.222 17.178 146.07 16.7216 145.767 16.392C145.468 16.0625 145.053 15.8977 144.523 15.8977C144.163 15.8977 143.843 15.9773 143.562 16.1364C143.286 16.2917 143.068 16.517 142.909 16.8125C142.754 17.108 142.676 17.4659 142.676 17.8864Z" fill="white"/>
</svg>
