<svg width="32" height="32" viewBox="0 0 32 32" fill="none" xmlns="http://www.w3.org/2000/svg">
<path d="M0 8.42105C0 3.77023 3.77023 0 8.42105 0H23.5789C28.2298 0 32 3.77023 32 8.42105V23.5789C32 28.2298 28.2298 32 23.5789 32H8.42105C3.77023 32 0 28.2298 0 23.5789V8.42105Z" fill="#3C50E0"/>
<path d="M13 15.75C12.6685 15.75 12.3505 15.8817 12.1161 16.1161C11.8817 16.3505 11.75 16.6685 11.75 17C11.75 17.3315 11.8817 17.6495 12.1161 17.8839C12.3505 18.1183 12.6685 18.25 13 18.25C13.1642 18.25 13.3267 18.2177 13.4784 18.1548C13.63 18.092 13.7678 18 13.8839 17.8839C14 17.7678 14.092 17.63 14.1548 17.4784C14.2177 17.3267 14.25 17.1642 14.25 17C14.25 16.8358 14.2177 16.6733 14.1548 16.5216C14.092 16.37 14 16.2322 13.8839 16.1161C13.7678 16 13.63 15.908 13.4784 15.8452C13.3267 15.7823 13.1642 15.75 13 15.75ZM19 15.75C18.6685 15.75 18.3505 15.8817 18.1161 16.1161C17.8817 16.3505 17.75 16.6685 17.75 17C17.75 17.3315 17.8817 17.6495 18.1161 17.8839C18.3505 18.1183 18.6685 18.25 19 18.25C19.3315 18.25 19.6495 18.1183 19.8839 17.8839C20.1183 17.6495 20.25 17.3315 20.25 17C20.25 16.6685 20.1183 16.3505 19.8839 16.1161C19.6495 15.8817 19.3315 15.75 19 15.75ZM16 6C14.6868 6 13.3864 6.25866 12.1732 6.7612C10.9599 7.26375 9.85752 8.00035 8.92893 8.92893C7.05357 10.8043 6 13.3478 6 16C6 18.6522 7.05357 21.1957 8.92893 23.0711C9.85752 23.9997 10.9599 24.7362 12.1732 25.2388C13.3864 25.7413 14.6868 26 16 26C18.6522 26 21.1957 24.9464 23.0711 23.0711C24.9464 21.1957 26 18.6522 26 16C26 14.6868 25.7413 13.3864 25.2388 12.1732C24.7362 10.9599 23.9997 9.85752 23.0711 8.92893C22.1425 8.00035 21.0401 7.26375 19.8268 6.7612C18.6136 6.25866 17.3132 6 16 6ZM16 24C13.8783 24 11.8434 23.1571 10.3431 21.6569C8.84285 20.1566 8 18.1217 8 16C7.97 15.71 7.97 15.43 8 15.14C10.38 14.1 12.27 12.17 13.26 9.77C15.13 12.42 18.17 14 21.42 14C22.18 14 22.93 13.91 23.67 13.74C24.92 18 22.5 22.43 18.26 23.67C17.5 23.89 16.76 24 16 24ZM4 6C4 5.46957 4.21071 4.96086 4.58579 4.58579C4.96086 4.21071 5.46957 4 6 4H10V6H6V10H4V6ZM28 26C28 26.5304 27.7893 27.0391 27.4142 27.4142C27.0391 27.7893 26.5304 28 26 28H22V26H26V22H28V26ZM6 28C5.46957 28 4.96086 27.7893 4.58579 27.4142C4.21071 27.0391 4 26.5304 4 26V22H6V26H10V28H6ZM26 4C26.5304 4 27.0391 4.21071 27.4142 4.58579C27.7893 4.96086 28 5.46957 28 6V10H26V6H22V4H26Z" fill="#EBEDFC"/>
</svg>
